<?xml version="1.0" encoding="iso-8859-1"?>
<!-- Uploaded to: SVG Repo, www.svgrepo.com, Generator: SVG Repo Mixer Tools -->
<svg version="1.1" id="Layer_1" xmlns="http://www.w3.org/2000/svg" xmlns:xlink="http://www.w3.org/1999/xlink" 
	 viewBox="0 0 512 512" xml:space="preserve">
<g>
	<rect x="188.437" y="323.584" style="fill:#0084FF;" width="35.589" height="35.61"/>
	<rect x="152.837" y="359.194" style="fill:#0084FF;" width="35.6" height="35.621"/>
	<rect x="117.248" y="394.804" style="fill:#0084FF;" width="35.589" height="35.61"/>
	<rect x="81.648" y="430.414" style="fill:#0084FF;" width="35.6" height="35.61"/>
	<rect x="46.049" y="394.804" style="fill:#0084FF;" width="35.589" height="35.61"/>
	<rect x="10.449" y="359.194" style="fill:#0084FF;" width="35.6" height="35.621"/>
</g>
<path style="fill:#FFFFFF;" d="M282.184,309.594l-59.187,15.015l15.016-59.188L282.184,309.594z"/>
<path style="fill:#FF1A1A;" d="M492.389,55.123c6.112,6.113,9.162,14.095,9.162,22.093s-3.05,15.979-9.162,22.092l-9.703,9.721
	l-44.169-44.187l9.721-9.719C460.431,42.926,480.204,42.926,492.389,55.123L492.389,55.123z"/>
<path style="fill:#92E03F;" d="M482.686,109.028L282.184,309.594l-44.17-44.172L438.518,64.841L482.686,109.028z"/>
<path d="M512,77.215c0-11.128-4.339-21.599-12.218-29.479c-7.868-7.873-18.332-12.21-29.466-12.21
	c-11.131,0-21.597,4.335-29.466,12.206l-9.721,9.719c-0.003,0.003-0.006,0.007-0.009,0.01L230.624,258.034
	c-0.014,0.014-0.024,0.028-0.037,0.041c-0.059,0.06-0.111,0.125-0.168,0.186c-0.233,0.247-0.452,0.501-0.656,0.763
	c-0.074,0.096-0.144,0.194-0.215,0.293c-0.189,0.261-0.364,0.529-0.526,0.802c-0.051,0.086-0.103,0.169-0.153,0.257
	c-0.413,0.747-0.725,1.534-0.941,2.342c-0.011,0.046-0.031,0.088-0.044,0.134l-12.757,50.284h-26.688
	c-5.77,0-10.449,4.679-10.449,10.449v25.157h-25.152c-5.77,0-10.449,4.679-10.449,10.449v25.166h-25.145
	c-5.77,0-10.449,4.679-10.449,10.449v25.162H92.093v-25.162c0-5.77-4.679-10.449-10.449-10.449H56.498V359.19
	c0-5.77-4.679-10.449-10.449-10.449h-35.6C4.679,348.741,0,353.42,0,359.19v35.615c0,5.77,4.679,10.449,10.449,10.449H35.6v25.164
	c0,5.77,4.679,10.449,10.449,10.449h25.145v25.157c0,5.77,4.679,10.449,10.449,10.449h35.6c5.77,0,10.449-4.679,10.449-10.449
	v-25.156h25.145c5.77,0,10.449-4.679,10.449-10.449v-25.164h25.152c5.77,0,10.449-4.679,10.449-10.449v-25.159h25.145
	c5.77,0,10.449-4.679,10.449-10.449v-26.722l50.269-12.753c0.06-0.015,0.115-0.041,0.173-0.056c0.335-0.091,0.665-0.199,0.99-0.323
	c0.069-0.026,0.14-0.047,0.207-0.074c0.38-0.155,0.749-0.334,1.109-0.533c0.095-0.052,0.185-0.111,0.278-0.166
	c0.268-0.159,0.528-0.329,0.782-0.512c0.1-0.073,0.201-0.145,0.299-0.222c0.27-0.21,0.53-0.434,0.78-0.671
	c0.051-0.048,0.106-0.091,0.155-0.14c0.016-0.015,0.032-0.028,0.048-0.044l200.503-200.566c0.003-0.003,0.006-0.007,0.009-0.01
	l9.694-9.709C507.66,98.811,512,88.342,512,77.215z M455.628,62.51c3.924-3.925,9.14-6.085,14.689-6.085
	c5.548,0,10.762,2.16,14.685,6.085c3.934,3.936,6.101,9.159,6.101,14.705c0,5.546-2.167,10.769-6.107,14.71l-2.313,2.318
	l-29.388-29.4L455.628,62.51z M20.898,369.64H35.6v14.717H20.898V369.64z M56.498,405.255h14.696v14.715H56.498V405.255z
	 M106.795,455.576H92.093v-14.709h14.702V455.576z M142.389,419.971h-14.696v-14.715h14.696V419.971z M177.991,384.357h-14.703
	V369.64h14.703V384.357z M213.585,348.749h-14.696v-14.715h14.696V348.749z M243.621,285.808l18.177,18.178l-24.357,6.178
	L243.621,285.808z M282.183,294.815l-29.394-29.395l185.728-185.8l29.395,29.408L282.183,294.815z"/>
</svg>